name Precision Landing16_filtered_grf.mot
datacolumns 37
datarows 15
range 0.572000 0.579000
endheader
time	1_ground_force_vx	1_ground_force_vy	1_ground_force_vz	1_ground_force_px	1_ground_force_py	1_ground_force_pz	1_ground_torque_x	1_ground_torque_y	1_ground_torque_z	2_ground_force_vx	2_ground_force_vy	2_ground_force_vz	2_ground_force_px	2_ground_force_py	2_ground_force_pz	2_ground_torque_x	2_ground_torque_y	2_ground_torque_z	3_ground_force_vx	3_ground_force_vy	3_ground_force_vz	3_ground_force_px	3_ground_force_py	3_ground_force_pz	3_ground_torque_x	3_ground_torque_y	3_ground_torque_z	4_ground_force_vx	4_ground_force_vy	4_ground_force_vz	4_ground_force_px	4_ground_force_py	4_ground_force_pz	4_ground_torque_x	4_ground_torque_y	4_ground_torque_z
            0.572000	           -0.000000	            0.000000	            0.000000	            0.082987	            0.000000	            0.398289	            0.000000	            0.000000	           -0.000000	            0.000000	            0.000000	            0.000000	           -0.148927	            0.000000	            0.420500	            0.000000	           -0.000000	            0.000000	           14.202514	           27.113030	            0.271220	            0.352445	            1.255061	            1.891614	           -0.497285	           -0.949332	           -0.009496	          -18.910289	            1.889554	           -2.708972	           -0.289414	            1.264842	            1.901805	            0.026821	           -0.002680	            0.003842
            0.572500	           -0.000000	            0.000000	            0.000000	            0.082987	            0.000000	            0.398289	            0.000000	            0.000000	           -0.000000	            0.000000	            0.000000	            0.000000	           -0.148927	            0.000000	            0.420500	            0.000000	           -0.000000	            0.000000	           14.022676	           25.224582	            0.846925	            0.352435	            1.255061	            1.891596	           -0.468671	           -0.843065	           -0.028306	          -18.938778	            1.869595	           -2.631420	           -0.289409	            1.264843	            1.901787	            0.026375	           -0.002604	            0.003665
            0.573000	           -0.000000	            0.000000	            0.000000	            0.082987	            0.000000	            0.398289	            0.000000	            0.000000	           -0.000000	            0.000000	            0.000000	            0.000000	           -0.148927	            0.000000	            0.420500	            0.000000	           -0.000000	            0.000000	           13.827869	           23.392775	            1.375560	            0.352432	            1.255060	            1.891576	           -0.438503	           -0.741822	           -0.043621	          -18.967727	            1.845685	           -2.556224	           -0.289402	            1.264844	            1.901768	            0.025735	           -0.002504	            0.003468
            0.573500	           -0.000000	            0.000000	            0.000000	            0.082987	            0.000000	            0.398289	            0.000000	            0.000000	           -0.000000	            0.000000	            0.000000	            0.000000	           -0.148927	            0.000000	            0.420500	            0.000000	           -0.000000	            0.000000	           13.618826	           21.619764	            1.859442	            0.352430	            1.255058	            1.891557	           -0.406902	           -0.645954	           -0.055556	          -18.996825	            1.818369	           -2.483559	           -0.289396	            1.264846	            1.901750	            0.024928	           -0.002386	            0.003259
            0.574000	           -0.000000	            0.000000	            0.000000	            0.082987	            0.000000	            0.398289	            0.000000	            0.000000	           -0.000000	            0.000000	            0.000000	            0.000000	           -0.148927	            0.000000	            0.420500	            0.000000	           -0.000000	            0.000000	           13.396369	           19.907586	            2.298478	            0.352427	            1.255056	            1.891537	           -0.374026	           -0.555818	           -0.064173	          -19.025749	            1.788212	           -2.413610	           -0.289389	            1.264847	            1.901731	            0.023981	           -0.002254	            0.003042
            0.574500	           -0.000000	           -0.000000	            0.000000	            0.082987	            0.000000	            0.398289	            0.000000	            0.000000	            0.000000	            0.000000	            0.000000	            0.000000	           -0.148927	            0.000000	            0.420500	            0.000000	           -0.000000	            0.000000	           13.161391	           18.258122	            2.692745	            0.352425	            1.255055	            1.891517	           -0.340078	           -0.471773	           -0.069578	          -19.054187	            1.755741	           -2.346530	           -0.289383	            1.264848	            1.901712	            0.022920	           -0.002112	            0.002823
            0.575000	           -0.000000	           -0.000000	            0.000000	            0.082987	            0.000000	            0.398289	           -0.000000	            0.000000	            0.000000	            0.000000	            0.000000	            0.000000	           -0.148927	            0.000000	            0.420500	            0.000000	           -0.000000	            0.000000	           12.914846	           16.673076	            3.042491	            0.352422	            1.255053	            1.891498	           -0.305315	           -0.394162	           -0.071926	          -19.081829	            1.721444	           -2.282445	           -0.289376	            1.264849	            1.901693	            0.021771	           -0.001964	            0.002604
            0.575500	           -0.000000	           -0.000000	            0.000000	            0.082987	            0.000000	            0.398289	           -0.000000	            0.000000	            0.000000	            0.000000	            0.000000	            0.000000	           -0.148927	            0.000000	            0.420500	            0.000000	           -0.000000	           -0.000000	           12.657886	           15.154175	            3.346627	            0.352427	            1.255051	            1.891477	           -0.270052	           -0.323309	           -0.071399	          -19.108381	            1.685818	           -2.221401	           -0.289369	            1.264850	            1.901674	            0.020557	           -0.001814	            0.002390
            0.576000	           -0.000000	           -0.000000	            0.000000	            0.082987	            0.000000	            0.398289	           -0.000000	            0.000000	            0.000000	            0.000000	           -0.000000	            0.000000	           -0.148927	            0.000000	            0.420500	            0.000000	           -0.000000	           -0.000000	           12.391466	           13.702531	            3.607470	            0.352432	            1.255048	            1.891457	           -0.234657	           -0.259484	           -0.068314	          -19.133556	            1.649215	           -2.163540	           -0.289361	            1.264850	            1.901654	            0.019301	           -0.001664	            0.002183
            0.576500	           -0.000000	           -0.000000	            0.000000	            0.082987	            0.000000	            0.398289	           -0.000000	            0.000000	            0.000000	            0.000000	           -0.000000	            0.000000	           -0.148927	            0.000000	            0.420500	            0.000000	            0.000000	           -0.000000	           12.116698	           12.319201	            3.825789	            0.352438	            1.255046	            1.891436	           -0.199558	           -0.202894	           -0.063010	          -19.157084	            1.611998	           -2.108923	           -0.289354	            1.264851	            1.901634	            0.018025	           -0.001517	            0.001984
            0.577000	           -0.000000	           -0.000000	           -0.000000	            0.082987	            0.000000	            0.398289	           -0.000000	            0.000000	            0.000000	            0.000000	           -0.000000	            0.000000	           -0.148927	            0.000000	            0.420500	            0.000000	            0.000000	           -0.000000	           11.834729	           11.005009	            4.002524	            0.352443	            1.255043	            1.891416	           -0.165237	           -0.153653	           -0.055883	          -19.178711	            1.574492	           -2.057591	           -0.289346	            1.264852	            1.901615	            0.016746	           -0.001375	            0.001797
            0.577500	           -0.000000	           -0.000000	           -0.000000	            0.082987	            0.000000	            0.398289	           -0.000000	            0.000000	            0.000000	            0.000000	           -0.000000	            0.000000	           -0.148927	            0.000000	            0.420500	            0.000000	            0.000000	           -0.000000	           11.546742	            9.760524	            4.138792	            0.352448	            1.255041	            1.891396	           -0.132211	           -0.111759	           -0.047389	          -19.198202	            1.536979	           -2.009570	           -0.289339	            1.264852	            1.901595	            0.015484	           -0.001240	            0.001621
            0.578000	           -0.000000	           -0.000000	           -0.000000	            0.082987	            0.000000	            0.398289	           -0.000000	           -0.000000	            0.000000	            0.000000	           -0.000000	            0.000000	           -0.148927	            0.000000	            0.420500	            0.000000	            0.000000	           -0.000000	           11.254125	            8.586256	            4.235011	            0.352459	            1.255037	            1.891376	           -0.101017	           -0.077070	           -0.038013	          -19.215359	            1.499749	           -1.964703	           -0.289331	            1.264853	            1.901575	            0.014252	           -0.001112	            0.001457
            0.578500	           -0.000000	           -0.000000	           -0.000000	            0.082987	            0.000000	            0.398289	           -0.000000	           -0.000000	            0.000000	            0.000000	           -0.000000	            0.000000	           -0.148927	            0.000000	            0.420500	            0.000000	            0.000000	           -0.000000	           10.957924	            7.482075	            4.293625	            0.352471	            1.255034	            1.891356	           -0.072180	           -0.049284	           -0.028282	          -19.229976	            1.462966	           -1.923145	           -0.289324	            1.264853	            1.901555	            0.013065	           -0.000994	            0.001307
            0.579000	           -0.000000	           -0.000000	           -0.000000	            0.082987	            0.000000	            0.398289	           -0.000000	           -0.000000	            0.000000	            0.000000	           -0.000000	            0.000000	           -0.148927	            0.000000	            0.420500	            0.000000	            0.000000	           -0.000000	           10.659366	            6.447771	            4.316230	            0.352483	            1.255031	            1.891336	           -0.046184	           -0.027936	           -0.018701	          -19.241884	            1.426807	           -1.884872	           -0.289316	            1.264854	            1.901534	            0.011936	           -0.000885	            0.001169
